<svg xmlns="http://www.w3.org/2000/svg" width="64" height="64" id="rss"><circle cx="10.216" cy="53.787" r="8.713" fill="#FA9826"></circle><path fill="#EF8114" d="M1 21.833v11.622C18 33.454 30.548 46 30.548 63h11.619C42.167 40 24 21.833 1 21.833z"></path><path fill="#EF8114" d="M2 1.5v11.618C29 13.118 50.883 35 50.883 63H62.5C62.5 29 35 1.5 2 1.5z"></path><g fill="#FA9826"><circle cx="10.216" cy="53.787" r="8.713"></circle><path d="M1 21.833v11.622c15 0 27.725 11.251 29.334 25.751a58.608 58.608 0 0 0 11.031-4.459C37.771 35.972 21 21.833 1 21.833z"></path><path d="M58.021 39.856C48.953 17.328 27 1.5 2 1.5v11.618c22 0 41.48 15.288 47.11 36.366 3.74-3.026 6.876-5.839 8.911-9.628z"></path></g><path fill="#FA9826" d="M10.216 45.073c-4.812 0-8.715 3.9-8.715 8.712a8.697 8.697 0 0 0 3.366 6.871c4.718-1.698 9.465-4.129 14.044-7.251-.202-4.635-4.013-8.332-8.695-8.332zM1 21.833v11.622c11 0 20.212 5.649 25.301 14.078a73.66 73.66 0 0 0 2.884-2.755c1.897-1.899 3.601-4.016 5.223-6.028C27.022 28.429 15 21.833 1 21.833zM2 1.5v11.618c15 0 29.031 7.148 38.094 18.309 2.273-3.734 4.132-7.155 5.477-10.95C34.475 9.03 19 1.5 2 1.5z"></path><path fill="#F9BD28" d="M14.314 46.097a8.676 8.676 0 0 0-4.099-1.023c-4.812 0-8.715 3.9-8.715 8.712 0 1.673.48 3.23 1.297 4.559 4.407-2.882 8.325-7.072 11.517-12.248zM21.418 27.122C15.475 23.717 9 21.833 1 21.833v11.622c6.859.062 12 2.108 16.78 5.182 1.493-3.562 2.782-7.44 3.638-11.515zM2 13.118c7 0 14.688 1.83 21.175 4.969.141-1.842.105-3.777.105-5.674 0-2.399.066-4.755-.157-7.063C16.486 2.866 9 1.5 2 1.5v11.618z"></path></svg>