<?xml version="1.0" encoding="UTF-8" standalone="no"?>
<!DOCTYPE svg PUBLIC "-//W3C//DTD SVG 1.1//EN" "http://www.w3.org/Graphics/SVG/1.1/DTD/svg11.dtd">
<svg xmlns="http://www.w3.org/2000/svg" version="1.1" viewBox="0 0 1920 1080">
<path fill="#303030" d="
  M 649.98 538.50
  A 229.47 229.47 0.0 0 1 420.51 767.97
  A 229.47 229.47 0.0 0 1 191.04 538.50
  A 229.47 229.47 0.0 0 1 420.51 309.03
  A 229.47 229.47 0.0 0 1 649.98 538.50
  Z
  M 642.40 538.50
  A 221.89 221.89 0.0 0 0 420.51 316.61
  A 221.89 221.89 0.0 0 0 198.62 538.50
  A 221.89 221.89 0.0 0 0 420.51 760.39
  A 221.89 221.89 0.0 0 0 642.40 538.50
  Z"
/>
<path fill="#303030" d="
  M 354.48 658.16
  L 231.24 587.25
  A 1.01 1.00 -75.0 0 1 230.74 586.38
  L 230.76 578.81
  A 1.00 1.00 0.0 0 1 232.26 577.95
  L 364.09 653.85
  A 1.01 1.00 45.3 0 0 365.09 653.86
  L 372.67 649.56
  Q 374.20 648.69 372.68 647.82
  L 231.25 566.49
  A 1.01 1.00 -75.0 0 1 230.75 565.62
  L 230.75 558.03
  A 1.00 1.00 0.0 0 1 232.25 557.17
  L 382.18 643.46
  A 1.00 1.00 0.0 0 0 383.18 643.46
  L 390.68 639.13
  Q 392.18 638.27 390.68 637.40
  L 231.25 545.69
  A 1.01 1.00 -75.0 0 1 230.75 544.82
  L 230.75 537.41
  A 1.00 1.00 0.0 0 1 232.17 536.50
  Q 233.56 537.14 235.82 538.44
  Q 318.04 585.72 400.24 633.04
  A 1.00 1.00 0.0 0 0 401.24 633.04
  L 408.73 628.74
  Q 410.23 627.87 408.73 627.01
  L 231.25 524.90
  A 1.00 0.99 15.3 0 1 230.75 524.04
  L 230.75 434.25
  A 1.00 1.00 0.0 0 1 231.24 433.39
  L 237.99 429.33
  Q 239.50 428.42 239.50 430.19
  L 239.50 519.10
  A 1.02 1.00 -75.0 0 0 239.99 519.97
  L 247.49 524.41
  Q 249.00 525.30 249.00 523.54
  L 248.99 423.84
  A 0.99 0.99 0.0 0 1 249.46 423.00
  L 255.97 418.90
  Q 257.50 417.93 257.50 419.74
  L 257.50 529.47
  A 1.00 1.00 0.0 0 0 257.99 530.33
  L 265.37 534.75
  Q 266.91 535.67 266.88 533.88
  Q 266.58 511.33 266.85 489.43
  C 266.91 484.30 266.38 479.11 267.13 474.03
  C 267.37 472.35 266.76 470.69 266.76 469.23
  Q 266.75 441.39 266.78 413.56
  A 1.01 0.99 74.7 0 1 267.26 412.70
  L 273.99 408.67
  Q 275.50 407.76 275.50 409.53
  L 275.50 539.85
  A 1.00 0.99 15.3 0 0 276.00 540.71
  L 283.50 545.09
  Q 285.00 545.96 285.00 544.22
  L 285.00 403.12
  A 1.02 1.01 -16.2 0 1 285.48 402.26
  L 292.23 398.12
  Q 293.75 397.18 293.75 398.97
  L 293.75 550.28
  A 0.99 0.99 0.0 0 0 294.23 551.13
  L 301.50 555.51
  Q 303.02 556.42 303.02 554.65
  L 302.99 392.65
  A 1.00 1.00 0.0 0 1 303.48 391.79
  L 310.24 387.73
  Q 311.75 386.82 311.75 388.59
  L 311.75 560.65
  A 1.01 0.99 -74.7 0 0 312.23 561.51
  L 319.73 566.02
  Q 321.25 566.93 321.25 565.16
  L 321.25 382.16
  A 0.99 0.99 0.0 0 1 321.73 381.31
  L 328.24 377.36
  Q 329.76 376.44 329.76 378.22
  L 329.75 571.05
  A 1.00 1.00 0.0 0 0 330.24 571.91
  L 337.75 576.31
  Q 339.26 577.20 339.26 575.45
  L 339.25 371.74
  A 0.99 0.98 75.6 0 1 339.75 370.88
  L 418.51 325.50
  A 1.02 1.01 45.3 0 1 419.53 325.51
  L 425.89 329.37
  A 1.00 1.00 0.0 0 1 425.87 331.09
  L 348.50 375.55
  A 1.01 1.00 75.0 0 0 348.00 376.42
  L 348.01 385.09
  A 1.00 1.00 0.0 0 0 349.51 385.95
  L 436.36 335.95
  A 1.01 1.00 44.5 0 1 437.35 335.95
  L 443.98 339.70
  Q 445.50 340.57 443.98 341.44
  L 348.59 396.29
  A 1.00 0.99 -15.3 0 0 348.09 397.15
  L 348.00 405.85
  Q 347.98 407.60 349.50 406.73
  L 454.46 346.33
  A 1.01 1.00 -44.5 0 1 455.45 346.33
  L 462.07 350.07
  Q 463.59 350.93 462.07 351.81
  L 348.55 417.11
  A 1.01 1.00 75.0 0 0 348.05 417.98
  L 348.00 426.64
  Q 347.99 428.38 349.50 427.51
  L 472.52 356.72
  A 1.00 1.00 0.0 0 1 473.52 356.72
  L 480.06 360.49
  Q 481.57 361.36 480.06 362.22
  L 348.52 437.92
  A 1.01 1.00 75.0 0 0 348.02 438.79
  L 348.03 447.44
  A 1.00 1.00 0.0 0 0 349.53 448.30
  L 490.56 367.12
  A 1.00 1.00 0.0 0 1 491.56 367.12
  L 498.14 370.89
  Q 499.66 371.75 498.15 372.62
  L 348.49 458.73
  A 1.01 1.00 75.0 0 0 347.99 459.60
  L 348.01 468.22
  A 1.00 1.00 0.0 0 0 349.51 469.08
  L 508.60 377.54
  A 1.01 1.00 -44.5 0 1 509.59 377.54
  L 516.24 381.26
  Q 517.78 382.12 516.25 383.00
  L 348.55 479.47
  A 0.99 0.98 75.6 0 0 348.05 480.33
  L 348.00 489.22
  Q 347.98 491.09 349.54 490.07
  Q 350.91 489.17 352.33 488.35
  Q 439.79 437.88 526.73 387.91
  A 1.00 1.00 0.0 0 1 527.73 387.91
  L 606.21 433.07
  A 1.03 1.01 14.8 0 1 606.72 433.93
  L 606.75 441.43
  Q 606.76 443.17 605.25 442.30
  L 527.80 397.73
  A 1.00 1.00 0.0 0 0 526.80 397.73
  L 519.27 402.01
  Q 517.75 402.87 519.27 403.75
  L 606.26 453.78
  A 1.01 1.00 -75.0 0 1 606.76 454.65
  L 606.74 462.22
  A 1.00 1.00 0.0 0 1 605.24 463.08
  L 509.69 408.10
  A 0.99 0.97 44.5 0 0 508.70 408.10
  L 501.20 412.42
  Q 499.69 413.28 501.20 414.15
  L 606.26 474.55
  A 1.01 1.00 -75.0 0 1 606.76 475.42
  L 606.74 483.00
  A 1.00 1.00 0.0 0 1 605.24 483.86
  L 491.61 418.49
  A 0.99 0.98 -45.3 0 0 490.61 418.50
  L 483.22 422.84
  A 1.00 1.00 0.0 0 0 483.23 424.57
  L 606.21 495.36
  A 1.01 1.00 -76.1 0 1 606.72 496.22
  L 606.75 503.80
  Q 606.76 505.54 605.25 504.67
  L 473.60 428.91
  A 1.01 1.00 44.5 0 0 472.61 428.91
  L 465.10 433.19
  Q 463.58 434.06 465.10 434.93
  L 606.25 516.14
  A 1.01 1.00 15.0 0 1 606.76 517.01
  L 606.74 524.58
  A 1.00 1.00 0.0 0 1 605.24 525.44
  L 455.50 439.29
  A 1.01 1.00 44.5 0 0 454.51 439.29
  L 446.94 443.54
  Q 445.41 444.40 446.93 445.28
  L 606.17 536.87
  A 1.01 1.01 0.0 0 1 606.68 537.71
  L 606.92 545.44
  Q 606.97 547.23 605.42 546.33
  L 437.44 449.71
  A 1.01 1.00 -45.3 0 0 436.44 449.72
  L 429.03 454.01
  Q 427.53 454.88 429.03 455.74
  L 606.25 557.71
  A 1.01 1.00 -75.0 0 1 606.75 558.58
  L 606.75 648.70
  A 1.00 0.98 -15.6 0 1 606.26 649.55
  L 599.77 653.45
  Q 598.25 654.36 598.25 652.60
  L 598.25 563.59
  A 1.01 1.00 -75.0 0 0 597.75 562.72
  L 590.24 558.40
  A 1.00 1.00 0.0 0 0 588.74 559.27
  L 588.75 659.12
  A 1.00 1.00 0.0 0 1 588.26 659.98
  L 581.55 663.95
  Q 580.04 664.83 580.04 663.09
  Q 579.96 617.01 580.01 570.48
  C 580.02 567.32 580.27 561.56 580.01 557.05
  C 579.92 555.57 581.01 552.95 579.07 551.93
  Q 575.24 549.93 572.31 547.89
  Q 570.74 546.79 570.74 548.71
  L 570.76 669.49
  A 1.02 1.00 75.0 0 1 570.27 670.36
  L 563.51 674.29
  Q 562.01 675.17 562.01 673.43
  L 562.00 542.77
  A 1.02 1.00 -75.0 0 0 561.51 541.90
  L 554.24 537.63
  Q 552.74 536.75 552.74 538.50
  L 552.76 679.89
  A 1.01 1.00 -15.0 0 1 552.25 680.76
  L 545.25 684.77
  A 1.00 1.00 0.0 0 1 543.75 683.90
  L 543.75 532.25
  A 1.00 1.00 0.0 0 0 543.26 531.39
  L 536.01 527.14
  Q 534.50 526.26 534.50 528.00
  L 534.50 690.34
  A 1.01 1.00 75.0 0 1 534.00 691.21
  L 527.39 695.04
  Q 525.89 695.91 525.89 694.18
  L 525.86 521.90
  A 1.01 1.00 15.0 0 0 525.35 521.03
  L 517.99 516.85
  A 1.00 1.00 0.0 0 0 516.50 517.72
  L 516.50 700.69
  A 1.01 1.00 75.0 0 1 516.00 701.56
  L 509.26 705.46
  Q 507.76 706.33 507.76 704.60
  Q 507.77 647.46 507.74 590.34
  Q 507.74 590.08 508.14 587.73
  C 508.37 586.37 507.74 585.36 507.74 584.09
  Q 507.76 547.83 507.74 511.58
  A 1.00 1.00 0.0 0 0 507.25 510.72
  L 500.00 506.43
  Q 498.49 505.54 498.49 507.29
  L 498.50 711.03
  A 1.01 1.00 75.0 0 1 498.00 711.90
  L 419.32 757.11
  A 1.00 1.00 0.0 0 1 418.32 757.11
  L 411.87 753.37
  Q 410.37 752.50 411.87 751.64
  L 489.20 707.19
  A 1.00 0.99 74.8 0 0 489.70 706.31
  L 489.64 697.70
  A 1.00 1.00 0.0 0 0 488.14 696.84
  L 401.51 746.70
  A 1.01 1.00 -45.3 0 1 400.53 746.71
  L 393.79 743.02
  Q 392.23 742.16 393.77 741.27
  L 489.04 686.49
  A 1.00 0.99 -15.3 0 0 489.54 685.63
  L 489.66 676.94
  Q 489.69 675.18 488.16 676.06
  L 383.43 736.30
  A 0.99 0.98 44.2 0 1 382.46 736.31
  L 375.74 732.64
  Q 374.17 731.79 375.71 730.90
  L 489.15 665.59
  A 1.01 1.00 75.0 0 0 489.65 664.72
  L 489.65 656.12
  A 1.00 1.00 0.0 0 0 488.15 655.26
  L 365.24 725.97
  A 0.99 0.97 44.5 0 1 364.25 725.97
  L 357.69 722.20
  Q 356.18 721.34 357.68 720.47
  L 489.41 644.67
  A 1.01 0.99 74.1 0 0 489.91 643.75
  L 489.45 635.40
  A 1.00 1.00 0.0 0 0 487.95 634.59
  L 347.15 715.62
  A 1.02 1.01 45.3 0 1 346.13 715.61
  L 339.72 711.73
  A 1.00 1.00 0.0 0 1 339.74 710.01
  L 489.09 624.07
  A 1.01 1.00 76.1 0 0 489.60 623.21
  L 489.64 614.57
  Q 489.65 612.83 488.14 613.70
  L 329.34 705.06
  A 1.02 1.00 -45.6 0 1 328.38 705.08
  L 321.51 701.49
  Q 319.90 700.64 321.48 699.73
  L 489.26 603.18
  A 1.02 1.00 74.3 0 0 489.76 602.27
  L 489.46 593.85
  A 1.00 1.00 0.0 0 0 487.96 593.02
  L 311.00 694.81
  A 1.00 1.00 0.0 0 1 310.00 694.81
  L 231.25 649.52
  A 1.01 1.00 -75.0 0 1 230.75 648.65
  L 230.75 641.15
  A 1.00 1.00 0.0 0 1 232.25 640.28
  L 309.91 685.03
  A 0.99 0.97 44.5 0 0 310.90 685.03
  L 318.46 680.75
  Q 319.98 679.89 318.46 679.01
  L 231.30 628.87
  A 1.01 1.00 -76.1 0 1 230.79 628.01
  L 230.73 620.37
  Q 230.72 618.62 232.23 619.50
  L 328.03 674.64
  A 1.00 1.00 0.0 0 0 329.03 674.64
  L 336.49 670.31
  A 1.00 1.00 0.0 0 0 336.49 668.58
  L 231.25 608.07
  A 1.01 1.00 15.0 0 1 230.74 607.20
  L 230.75 599.62
  A 1.00 1.00 0.0 0 1 232.25 598.75
  L 346.08 664.27
  A 1.02 1.01 -44.5 0 0 347.09 664.27
  L 354.49 659.89
  A 1.00 1.00 0.0 0 0 354.48 658.16
  Z
  M 348.00 581.31
  A 1.26 1.26 0.0 0 0 348.63 582.40
  L 418.18 622.46
  A 1.26 1.26 0.0 0 0 419.44 622.46
  L 488.87 582.51
  A 1.26 1.26 0.0 0 0 489.50 581.42
  L 489.50 501.31
  A 1.26 1.26 0.0 0 0 488.87 500.22
  L 419.52 460.31
  A 1.26 1.26 0.0 0 0 418.26 460.31
  L 348.63 500.41
  A 1.26 1.26 0.0 0 0 348.00 501.50
  L 348.00 581.31
  Z"
/>
<path fill="#303030" d="
  M 886.08 621.78
  A 1.00 1.00 0.0 0 1 885.50 620.87
  C 885.50 616.34 884.44 585.99 885.81 584.02
  Q 885.93 583.85 886.07 583.70
  A 1.01 1.01 0.0 0 1 887.33 583.55
  C 893.22 587.28 902.37 589.02 905.98 581.30
  Q 907.85 577.31 905.00 572.52
  C 897.92 560.62 892.02 547.36 893.01 531.49
  C 894.82 502.62 925.63 483.14 953.10 493.40
  A 0.99 0.99 0.0 0 1 953.75 494.33
  L 953.75 529.96
  A 1.00 0.99 84.8 0 1 952.94 530.94
  Q 951.48 531.21 950.08 530.58
  Q 946.97 529.19 944.55 530.00
  C 931.25 534.47 938.33 546.56 942.91 554.07
  C 953.50 571.42 954.44 593.72 940.78 609.51
  C 927.16 625.27 905.62 630.99 886.08 621.78
  Z"
/>
<path fill="#303030" d="
  M 1052.79 557.25
  L 1061.75 557.25
  A 1.00 1.00 0.0 0 1 1062.75 558.25
  L 1062.75 591.76
  A 1.00 1.00 0.0 0 1 1061.75 592.76
  L 1052.75 592.75
  A 1.00 0.99 -89.7 0 0 1051.75 593.75
  L 1051.75 622.00
  A 1.00 1.00 0.0 0 1 1050.75 623.00
  L 1013.00 623.00
  A 1.00 1.00 0.0 0 1 1012.00 622.00
  Q 1011.99 580.14 1012.00 538.12
  C 1012.01 512.26 1027.77 494.10 1053.50 491.02
  C 1072.54 488.75 1093.52 493.18 1101.58 512.83
  Q 1105.77 523.05 1105.94 530.33
  C 1106.64 560.89 1106.52 591.41 1106.49 622.00
  A 1.00 1.00 0.0 0 1 1105.49 623.00
  L 1067.50 623.00
  A 1.00 1.00 0.0 0 1 1066.50 622.00
  Q 1066.53 580.34 1066.47 538.51
  C 1066.45 527.34 1053.90 526.93 1052.01 537.02
  Q 1051.36 540.48 1051.79 556.28
  A 1.00 0.99 -0.6 0 0 1052.79 557.25
  Z"
/>
<path fill="#303030" d="
  M 1536.85 533.28
  C 1534.47 528.39 1528.12 529.14 1525.22 532.86
  C 1521.73 537.35 1522.96 550.67 1523.08 556.27
  A 1.00 1.00 0.0 0 0 1524.08 557.25
  L 1533.00 557.25
  A 1.00 1.00 0.0 0 1 1534.00 558.25
  L 1534.00 591.76
  A 1.00 1.00 0.0 0 1 1533.00 592.76
  L 1524.00 592.75
  A 1.00 1.00 0.0 0 0 1523.00 593.75
  L 1523.00 622.00
  A 1.00 1.00 0.0 0 1 1522.00 623.00
  L 1484.26 623.00
  A 1.00 1.00 0.0 0 1 1483.26 622.00
  Q 1483.24 582.72 1483.25 542.75
  C 1483.26 516.36 1494.89 495.34 1523.24 491.22
  Q 1533.00 489.80 1543.26 491.21
  C 1572.55 495.23 1577.94 518.77 1577.97 543.72
  Q 1578.03 582.85 1577.99 622.00
  A 1.00 1.00 0.0 0 1 1576.99 623.00
  L 1539.00 622.99
  A 1.00 1.00 0.0 0 1 1538.00 621.99
  Q 1538.00 579.88 1538.00 537.00
  Q 1538.00 535.63 1536.85 533.28
  Z"
/>
<path fill="#303030" d="
  M 785.68 625.91
  C 754.12 629.62 734.02 610.14 734.00 579.00
  Q 733.98 537.01 734.00 495.00
  A 1.01 1.00 -89.7 0 1 735.00 494.00
  L 772.49 494.00
  A 1.00 1.00 0.0 0 1 773.49 495.00
  L 773.51 580.43
  Q 773.51 580.63 773.59 580.82
  Q 777.42 589.92 785.38 585.38
  A 1.05 0.98 -3.3 0 0 785.76 584.98
  Q 788.00 580.81 788.00 579.00
  Q 788.00 537.01 788.00 495.00
  A 1.00 1.00 0.0 0 1 789.00 494.00
  L 826.75 494.00
  A 1.00 1.00 0.0 0 1 827.75 495.00
  Q 827.75 537.63 827.75 580.25
  Q 827.75 583.09 826.64 588.97
  C 822.66 610.13 807.15 623.38 785.68 625.91
  Z"
/>
<path fill="#303030" d="
  M 1253.18 569.15
  A 1.00 0.99 59.1 0 0 1252.89 570.31
  L 1274.22 621.62
  A 1.00 1.00 0.0 0 1 1273.29 623.00
  L 1233.68 623.00
  A 1.00 0.99 -11.8 0 1 1232.77 622.41
  Q 1223.97 602.87 1215.25 583.31
  Q 1214.23 581.01 1214.23 578.50
  Q 1214.26 563.38 1214.26 548.28
  A 1.00 1.00 0.0 0 1 1215.27 547.28
  C 1221.93 547.36 1229.46 547.01 1229.24 538.00
  C 1229.04 529.77 1217.01 529.52 1211.39 530.07
  A 1.00 0.99 -2.9 0 0 1210.49 531.06
  L 1210.50 622.00
  A 1.00 1.00 0.0 0 1 1209.50 623.00
  L 1172.00 623.00
  A 1.00 1.00 0.0 0 1 1171.00 622.00
  L 1171.00 495.02
  A 1.01 1.00 -0.3 0 1 1172.00 494.02
  Q 1196.26 493.94 1220.62 494.04
  Q 1229.95 494.07 1235.15 495.13
  C 1254.45 499.08 1268.37 514.55 1269.36 533.92
  Q 1270.45 555.06 1253.18 569.15
  Z"
/>
<path fill="#303030" d="
  M 1368.00 531.00
  L 1368.00 622.00
  A 1.00 1.00 0.0 0 1 1367.00 623.00
  L 1329.25 623.00
  A 1.00 1.00 0.0 0 1 1328.25 622.00
  L 1328.25 495.01
  A 1.00 1.00 0.0 0 1 1329.25 494.01
  Q 1356.54 493.97 1383.99 494.02
  Q 1392.74 494.04 1401.58 497.91
  C 1430.98 510.78 1436.22 549.27 1410.78 569.20
  A 0.99 0.99 0.0 0 0 1410.48 570.37
  L 1431.78 621.61
  A 1.00 0.99 -11.4 0 1 1430.86 622.99
  L 1391.28 623.00
  A 1.00 1.00 0.0 0 1 1390.37 622.42
  Q 1381.61 603.08 1373.05 583.81
  Q 1372.02 581.50 1372.02 578.98
  Q 1371.98 563.63 1372.01 548.27
  A 1.00 1.00 0.0 0 1 1373.03 547.27
  C 1375.95 547.32 1379.47 547.35 1382.00 546.29
  C 1388.46 543.56 1388.92 533.72 1381.50 531.22
  Q 1376.52 529.54 1368.94 530.00
  A 1.00 1.00 0.0 0 0 1368.00 531.00
  Z"
/>
<path fill="#303030" d="
  M 1694.60 622.77
  C 1671.41 625.12 1648.28 617.73 1641.62 592.68
  Q 1640.11 586.97 1640.06 574.27
  Q 1639.92 534.66 1640.03 495.00
  A 1.00 1.00 0.0 0 1 1641.03 494.00
  L 1678.51 494.00
  A 1.00 1.00 0.0 0 1 1679.51 495.00
  Q 1679.48 533.52 1679.53 571.99
  C 1679.54 582.11 1684.79 585.47 1694.33 583.80
  A 1.00 0.99 85.0 0 1 1695.50 584.79
  L 1695.50 621.78
  A 1.00 0.99 -2.9 0 1 1694.60 622.77
  Z"
/>
</svg>
