<?xml version="1.0" encoding="UTF-8" standalone="no"?>
<!DOCTYPE svg PUBLIC "-//W3C//DTD SVG 1.1//EN" "http://www.w3.org/Graphics/SVG/1.1/DTD/svg11.dtd">
<svg xmlns="http://www.w3.org/2000/svg" version="1.1" viewBox="0 0 459 459">
<path fill="#232521" d="
  M 211.82 0.07
  L 247.54 0.10
  Q 307.96 5.49 358.11 39.18
  C 408.44 72.98 442.99 125.37 455.01 184.75
  Q 457.11 195.12 459.00 212.06
  L 459.00 247.81
  Q 458.13 253.30 457.47 258.79
  C 445.23 360.34 365.08 440.34 265.11 456.64
  C 259.66 457.53 252.82 458.13 246.69 459.00
  L 211.70 458.92
  C 105.81 449.29 22.01 373.26 2.91 268.66
  C 1.69 261.99 0.95 254.18 0.00 246.94
  L 0.00 210.94
  C 1.27 205.55 1.20 200.11 2.15 194.45
  C 19.95 87.83 104.16 9.91 211.82 0.07
  Z
  M 451.07 229.51
  A 221.54 221.54 0.0 0 0 229.53 7.97
  A 221.54 221.54 0.0 0 0 7.99 229.51
  A 221.54 221.54 0.0 0 0 229.53 451.05
  A 221.54 221.54 0.0 0 0 451.07 229.51
  Z"
/>
<path fill="#2b2c2a" d="
  M 129.76 255.20
  L 129.74 72.89
  A 1.00 1.00 0.0 0 1 130.23 72.03
  L 137.74 67.53
  Q 139.25 66.62 139.25 68.39
  L 139.24 261.61
  A 1.02 1.00 16.5 0 0 139.71 262.46
  L 146.22 266.52
  Q 147.75 267.47 147.75 265.67
  L 147.75 62.45
  A 1.01 1.00 -15.0 0 1 148.26 61.58
  L 227.52 15.97
  A 1.00 1.00 0.0 0 1 228.53 15.98
  L 235.81 20.36
  A 1.00 1.00 0.0 0 1 235.80 22.08
  L 158.23 66.72
  A 0.99 0.98 75.6 0 0 157.73 67.58
  L 157.66 75.14
  Q 157.65 76.89 159.16 76.02
  L 245.30 26.44
  A 1.02 1.02 0.0 0 1 246.29 26.43
  L 253.95 30.67
  Q 255.50 31.53 253.97 32.42
  L 158.30 87.46
  A 0.99 0.98 -14.5 0 0 157.80 88.30
  L 157.64 95.90
  Q 157.60 97.68 159.13 96.79
  L 263.44 36.81
  A 1.02 1.02 0.0 0 1 264.43 36.80
  L 270.88 40.38
  Q 273.60 41.89 270.97 43.40
  L 158.20 108.31
  A 1.00 0.99 -15.3 0 0 157.70 109.17
  L 157.65 116.69
  Q 157.64 118.43 159.15 117.56
  L 281.51 47.18
  A 1.00 1.00 0.0 0 1 282.51 47.18
  L 290.01 51.49
  Q 291.52 52.35 290.01 53.22
  L 158.30 129.05
  A 1.00 0.99 75.8 0 0 157.80 129.90
  L 157.65 137.47
  Q 157.61 139.24 159.14 138.36
  L 299.46 57.65
  A 1.02 1.01 44.2 0 1 300.43 57.64
  L 308.24 61.76
  Q 309.84 62.61 308.27 63.51
  L 158.24 149.89
  A 1.01 1.00 75.0 0 0 157.74 150.76
  L 157.75 158.24
  A 1.00 1.00 0.0 0 0 159.25 159.11
  L 317.65 67.96
  A 1.00 1.00 0.0 0 1 318.65 67.96
  L 326.40 72.39
  Q 328.05 73.33 326.34 74.16
  Q 324.17 75.20 322.10 76.39
  C 267.46 107.80 212.65 138.98 158.21 170.74
  A 1.00 0.99 -15.3 0 0 157.71 171.60
  L 157.66 179.04
  Q 157.65 180.79 159.16 179.92
  Q 236.67 135.29 314.25 90.80
  Q 324.97 84.65 335.62 78.36
  A 1.00 1.00 0.0 0 1 336.63 78.35
  L 415.53 123.74
  A 1.00 0.98 -76.6 0 1 416.03 124.57
  L 416.36 132.78
  Q 416.47 135.57 413.85 133.78
  C 409.47 130.79 404.11 127.98 400.32 125.80
  Q 368.57 107.55 336.84 89.27
  A 1.01 1.00 45.3 0 0 335.86 89.26
  L 329.13 92.93
  Q 327.56 93.78 329.11 94.67
  L 415.66 144.52
  A 0.98 0.97 14.7 0 1 416.16 145.37
  L 416.29 154.02
  Q 416.32 155.77 414.79 154.90
  L 318.69 99.64
  A 1.00 1.00 0.0 0 0 317.69 99.64
  L 311.15 103.42
  Q 309.64 104.29 311.15 105.15
  L 415.64 165.28
  A 1.02 1.02 0.0 0 1 416.14 166.14
  L 416.25 174.80
  Q 416.28 176.55 414.76 175.68
  L 300.73 110.09
  A 1.01 1.00 44.5 0 0 299.74 110.09
  L 293.14 113.78
  Q 291.60 114.64 293.13 115.52
  L 415.72 186.14
  A 1.02 1.02 0.0 0 1 416.22 187.00
  L 416.32 195.62
  Q 416.34 197.37 414.82 196.50
  L 282.62 120.48
  A 1.01 0.98 44.8 0 0 281.63 120.47
  L 275.04 124.18
  Q 273.51 125.04 275.03 125.91
  L 415.72 206.89
  A 1.03 1.01 14.8 0 1 416.23 207.75
  L 416.26 216.38
  Q 416.27 218.11 414.76 217.25
  L 264.54 130.87
  A 1.00 0.99 -44.2 0 0 263.55 130.86
  L 256.93 134.52
  Q 255.38 135.38 256.92 136.26
  L 415.67 227.66
  A 1.00 0.99 -75.8 0 1 416.17 228.51
  L 416.29 237.18
  Q 416.31 238.94 414.79 238.06
  L 246.31 141.17
  A 1.00 0.99 -48.4 0 0 245.21 141.24
  Q 242.31 143.43 238.99 144.88
  Q 237.18 145.68 238.89 146.67
  L 415.75 248.47
  A 1.01 1.00 -75.0 0 1 416.25 249.34
  L 416.25 339.83
  A 1.02 1.01 -16.2 0 1 415.77 340.69
  L 408.29 345.21
  Q 406.77 346.13 406.77 344.36
  L 406.82 254.87
  A 1.00 0.99 15.3 0 0 406.32 254.01
  L 399.51 250.02
  Q 398.00 249.13 398.00 250.88
  L 398.00 350.56
  A 1.01 1.00 -15.0 0 1 397.49 351.43
  L 389.98 355.67
  A 1.00 1.00 0.0 0 1 388.49 354.80
  L 388.52 244.39
  A 1.00 1.00 0.0 0 0 388.03 243.53
  L 381.74 239.79
  Q 380.23 238.90 380.23 240.66
  L 380.25 360.76
  A 0.99 0.98 75.6 0 1 379.75 361.62
  L 371.99 366.07
  A 1.00 1.00 0.0 0 1 370.50 365.20
  L 370.51 234.14
  A 0.99 0.99 0.0 0 0 370.03 233.29
  L 363.52 229.30
  Q 362.00 228.36 362.00 230.15
  L 362.00 371.20
  A 1.00 1.00 0.0 0 1 361.51 372.06
  L 353.76 376.63
  Q 352.25 377.52 352.25 375.77
  L 352.26 223.52
  A 1.01 1.00 -75.0 0 0 351.76 222.65
  L 345.50 219.01
  Q 344.00 218.13 344.00 219.87
  L 344.00 381.53
  A 1.00 1.00 0.0 0 1 343.51 382.39
  L 335.75 386.93
  Q 334.24 387.81 334.24 386.07
  L 334.24 213.16
  A 1.02 1.00 -75.0 0 0 333.75 212.29
  L 327.51 208.64
  Q 326.00 207.76 326.00 209.50
  L 326.00 392.02
  A 1.01 1.00 -15.0 0 1 325.49 392.89
  L 317.71 397.24
  A 1.00 1.00 0.0 0 1 316.22 396.36
  C 316.35 359.73 316.05 323.32 316.30 286.81
  Q 316.36 277.46 316.23 266.81
  Q 315.82 234.61 316.10 202.65
  A 1.01 1.01 0.0 0 0 315.59 201.77
  L 309.48 198.33
  A 1.00 1.00 0.0 0 0 307.99 199.20
  L 308.00 402.26
  A 1.01 1.00 75.0 0 1 307.50 403.13
  L 228.32 448.62
  A 0.99 0.97 44.5 0 1 227.33 448.62
  L 219.92 444.39
  Q 218.40 443.53 219.92 442.66
  L 297.45 398.07
  A 1.00 0.99 75.8 0 0 297.95 397.22
  L 298.09 389.58
  Q 298.13 387.81 296.60 388.69
  L 210.50 438.23
  A 0.99 0.98 44.2 0 1 209.53 438.24
  L 201.62 434.00
  Q 199.99 433.12 201.61 432.24
  Q 210.40 427.46 219.31 422.31
  Q 258.34 399.75 297.43 377.30
  A 1.02 1.00 -15.1 0 0 297.93 376.45
  L 298.09 368.79
  Q 298.13 367.02 296.60 367.91
  L 192.37 427.90
  A 1.02 1.02 0.0 0 1 191.37 427.90
  L 183.58 423.48
  Q 181.92 422.54 183.64 421.71
  Q 186.85 420.16 190.06 418.31
  C 225.86 397.67 262.01 377.43 297.51 356.30
  A 1.00 1.00 0.0 0 0 298.00 355.44
  L 298.00 348.04
  A 1.00 1.00 0.0 0 0 296.50 347.18
  L 174.34 417.47
  A 0.98 0.97 -45.3 0 1 173.36 417.48
  L 165.73 413.24
  Q 164.19 412.38 165.72 411.50
  L 297.66 335.54
  A 1.00 0.98 -16.2 0 0 298.16 334.65
  L 297.98 327.28
  A 1.00 1.00 0.0 0 0 296.48 326.44
  L 156.20 407.12
  A 1.00 1.00 0.0 0 1 155.20 407.12
  L 147.65 402.81
  Q 146.13 401.94 147.65 401.07
  Q 222.11 358.24 296.90 315.12
  Q 297.09 315.02 297.29 314.98
  A 0.79 0.79 0.0 0 0 297.95 314.21
  L 298.10 306.45
  Q 298.14 304.68 296.60 305.56
  L 138.26 396.67
  A 1.03 1.01 -45.6 0 1 137.28 396.69
  L 129.49 392.47
  Q 127.92 391.62 129.47 390.73
  L 297.59 294.00
  A 1.00 0.99 74.8 0 0 298.09 293.12
  L 297.97 285.72
  A 1.00 1.00 0.0 0 0 296.47 284.87
  L 120.04 386.34
  A 1.00 1.00 0.0 0 1 119.04 386.34
  L 39.83 340.85
  A 1.02 1.01 -76.0 0 1 39.33 340.01
  L 39.05 331.24
  Q 38.99 329.44 40.55 330.34
  L 118.12 374.99
  Q 118.25 375.07 118.35 375.18
  L 119.00 375.87
  A 0.22 0.21 -35.0 0 0 119.26 375.91
  L 126.85 371.50
  Q 127.02 371.40 127.14 371.24
  L 127.37 370.95
  A 0.34 0.33 -55.9 0 0 127.28 370.46
  L 39.82 320.12
  A 1.02 1.02 0.0 0 1 39.33 319.41
  Q 38.64 314.93 39.20 310.39
  A 1.00 1.00 0.0 0 1 40.69 309.64
  L 137.03 365.07
  A 0.99 0.98 -45.3 0 0 138.03 365.06
  L 144.48 361.29
  A 1.00 1.00 0.0 0 0 144.47 359.56
  L 39.57 299.20
  A 1.00 0.99 15.3 0 1 39.07 298.34
  L 39.01 289.62
  Q 38.99 287.87 40.50 288.74
  L 155.08 354.71
  A 1.00 1.00 0.0 0 0 156.09 354.70
  L 162.52 350.91
  A 1.00 1.00 0.0 0 0 162.51 349.18
  L 39.66 278.47
  A 1.02 1.00 15.1 0 1 39.16 277.62
  L 39.00 270.26
  Q 38.94 267.03 41.71 268.62
  L 172.96 344.18
  A 1.02 1.00 45.6 0 0 173.92 344.20
  L 180.76 340.64
  Q 182.38 339.80 180.79 338.89
  L 39.51 257.60
  A 0.99 0.98 -75.6 0 1 39.01 256.74
  L 38.99 249.02
  Q 38.99 246.27 41.24 247.57
  L 191.43 334.01
  A 1.02 1.01 40.6 0 0 192.55 333.93
  Q 195.39 331.70 198.70 330.26
  Q 200.52 329.47 198.80 328.47
  L 39.49 236.80
  A 0.99 0.98 15.5 0 1 38.99 235.93
  L 39.03 227.26
  A 1.01 1.00 -75.0 0 1 40.53 226.39
  L 209.13 323.39
  A 1.01 0.98 44.8 0 0 210.12 323.40
  L 216.70 319.73
  Q 218.24 318.87 216.71 317.99
  L 39.45 216.01
  A 1.01 1.00 -75.0 0 1 38.95 215.14
  L 39.28 124.72
  A 1.01 1.01 0.0 0 1 39.82 123.84
  L 46.11 120.54
  Q 46.34 120.42 46.48 120.20
  Q 47.12 119.22 48.08 119.30
  A 1.00 0.99 2.2 0 1 49.00 120.29
  L 49.00 209.86
  A 1.02 1.00 -75.0 0 0 49.49 210.73
  L 55.78 214.43
  Q 57.29 215.32 57.29 213.57
  L 57.23 114.44
  A 1.01 1.00 -15.0 0 1 57.74 113.57
  L 65.50 109.12
  A 1.00 1.00 0.0 0 1 67.00 109.98
  L 67.00 220.26
  A 1.01 1.00 -75.0 0 0 67.50 221.13
  L 73.65 224.71
  Q 75.19 225.60 75.16 223.82
  Q 74.79 202.35 75.06 180.43
  C 75.12 175.22 74.79 170.15 75.36 164.95
  C 75.57 163.12 75.02 160.95 75.01 159.34
  Q 74.94 131.89 75.12 104.43
  A 0.99 0.99 0.0 0 1 75.60 103.58
  L 83.50 98.81
  Q 85.01 97.89 85.01 99.66
  L 84.99 230.38
  A 1.00 0.99 -74.4 0 0 85.46 231.23
  L 91.74 235.17
  Q 93.27 236.13 93.27 234.32
  L 93.25 93.91
  A 1.00 1.00 0.0 0 1 93.74 93.05
  L 101.50 88.45
  Q 103.01 87.55 103.01 89.31
  L 103.00 240.87
  A 0.99 0.99 0.0 0 0 103.48 241.72
  Q 106.77 243.71 109.99 245.65
  C 111.02 246.28 112.57 246.19 111.41 244.47
  A 1.06 0.99 29.9 0 1 111.24 243.91
  L 111.27 83.32
  A 1.01 1.00 -15.0 0 1 111.78 82.45
  L 119.95 77.90
  A 1.00 0.99 75.1 0 1 121.43 78.76
  C 121.66 98.27 121.24 118.02 121.34 137.56
  Q 121.62 194.56 121.40 251.56
  A 1.01 1.00 15.0 0 0 121.91 252.43
  L 128.26 256.07
  A 1.00 1.00 0.0 0 0 129.76 255.20
  Z
  M 297.51 191.64
  C 274.50 178.21 251.52 164.76 228.21 151.88
  A 0.98 0.97 -45.3 0 0 227.23 151.89
  L 158.23 191.59
  A 0.98 0.98 0.0 0 0 157.72 192.45
  L 157.76 272.30
  A 0.99 0.98 -75.6 0 0 158.26 273.16
  L 227.32 312.96
  A 1.00 1.00 0.0 0 0 228.32 312.96
  L 297.48 273.14
  A 1.01 1.00 75.0 0 0 297.98 272.27
  L 298.01 192.50
  A 1.00 0.99 15.3 0 0 297.51 191.64
  Z"
/>
</svg>
