<?xml version="1.0" encoding="UTF-8" standalone="no"?>
<!DOCTYPE svg PUBLIC "-//W3C//DTD SVG 1.1//EN" "http://www.w3.org/Graphics/SVG/1.1/DTD/svg11.dtd">
<svg xmlns="http://www.w3.org/2000/svg" version="1.1" viewBox="0 0 460 459">
<path fill="#cdcdcd" d="
  M 216.31 0.00
  L 245.31 0.00
  Q 261.10 1.47 273.25 3.76
  C 377.01 23.31 452.24 110.36 460.00 215.31
  L 460.00 244.81
  C 450.28 361.30 361.95 449.51 245.44 459.00
  L 216.19 459.00
  C 99.84 449.73 10.78 362.08 1.13 245.57
  Q 0.78 241.31 0.95 224.52
  C 1.51 168.93 24.23 113.47 62.26 73.14
  Q 124.22 7.45 216.31 0.00
  Z
  M 452.17 229.51
  A 221.63 221.63 0.0 0 0 230.54 7.88
  A 221.63 221.63 0.0 0 0 8.91 229.51
  A 221.63 221.63 0.0 0 0 230.54 451.14
  A 221.63 221.63 0.0 0 0 452.17 229.51
  Z"
/>
<path fill="#cdcdcd" d="
  M 158.42 137.71
  Q 158.40 139.46 159.92 138.59
  L 300.50 57.75
  A 1.01 1.00 -45.3 0 1 301.48 57.74
  L 308.92 61.83
  Q 310.47 62.69 308.93 63.57
  L 159.00 149.89
  A 1.01 1.00 75.0 0 0 158.50 150.76
  L 158.50 158.46
  A 1.00 1.00 0.0 0 0 160.00 159.33
  L 318.66 68.10
  A 1.00 1.00 0.0 0 1 319.66 68.10
  L 326.89 72.31
  A 1.00 1.00 0.0 0 1 326.88 74.04
  L 159.04 170.64
  A 1.02 1.00 -15.1 0 0 158.54 171.49
  L 158.41 179.29
  Q 158.38 181.05 159.91 180.17
  L 336.69 78.49
  A 1.00 1.00 0.0 0 1 337.69 78.49
  L 416.46 123.86
  A 0.99 0.98 -75.6 0 1 416.96 124.72
  L 417.02 132.93
  Q 417.03 134.67 415.52 133.81
  L 337.81 89.13
  A 1.00 0.99 -44.2 0 0 336.82 89.12
  L 329.97 92.99
  Q 328.44 93.86 329.96 94.73
  L 416.44 144.53
  A 0.99 0.98 14.5 0 1 416.94 145.37
  L 417.15 153.79
  Q 417.19 155.57 415.65 154.68
  L 319.68 99.49
  A 1.00 1.00 0.0 0 0 318.68 99.49
  L 311.95 103.42
  A 1.00 1.00 0.0 0 0 311.96 105.15
  L 416.58 165.40
  A 1.03 1.02 15.6 0 1 417.08 166.28
  L 416.97 174.51
  A 0.99 0.99 0.0 0 1 415.48 175.36
  L 301.64 109.91
  A 0.99 0.97 44.5 0 0 300.65 109.91
  L 293.90 113.79
  Q 292.40 114.65 293.90 115.52
  L 416.52 186.16
  A 1.00 0.99 -75.8 0 1 417.02 187.01
  L 417.16 195.39
  Q 417.19 197.16 415.66 196.28
  L 283.60 120.33
  A 1.01 1.00 44.5 0 0 282.61 120.33
  L 275.84 124.18
  Q 274.32 125.04 275.83 125.91
  L 416.40 206.86
  A 1.02 0.99 14.3 0 1 416.91 207.69
  L 417.18 216.16
  Q 417.24 217.96 415.69 217.06
  L 265.49 130.72
  A 1.01 1.00 45.3 0 0 264.49 130.71
  L 257.75 134.56
  Q 256.24 135.42 257.75 136.29
  L 416.43 227.65
  A 1.00 0.99 -75.8 0 1 416.93 228.50
  L 417.10 236.93
  Q 417.13 238.70 415.60 237.82
  L 247.44 141.13
  A 1.00 1.00 0.0 0 0 246.44 141.13
  L 239.73 145.05
  Q 238.01 146.06 239.84 146.84
  Q 241.81 147.68 243.67 148.76
  Q 329.80 198.53 416.50 248.49
  A 1.01 1.00 -75.0 0 1 417.00 249.36
  L 417.00 339.89
  A 1.00 1.00 0.0 0 1 416.51 340.75
  L 409.36 344.98
  Q 407.85 345.87 407.85 344.12
  L 407.82 254.76
  A 1.00 1.00 0.0 0 0 407.33 253.90
  L 400.51 249.85
  Q 399.00 248.95 399.00 250.71
  L 399.00 350.36
  A 0.99 0.98 75.6 0 1 398.50 351.22
  L 391.25 355.43
  Q 389.75 356.31 389.75 354.57
  L 389.75 244.41
  A 1.01 0.99 -74.7 0 0 389.27 243.55
  L 382.74 239.63
  Q 381.22 238.72 381.22 240.49
  L 381.25 360.57
  A 1.00 0.99 -15.3 0 1 380.75 361.43
  L 373.25 365.81
  Q 371.75 366.69 371.75 364.95
  L 371.75 234.09
  A 0.99 0.99 0.0 0 0 371.27 233.24
  L 364.52 229.10
  Q 363.00 228.16 363.00 229.95
  L 363.00 371.07
  A 1.01 1.00 75.0 0 1 362.50 371.94
  L 355.00 376.31
  Q 353.50 377.18 353.50 375.44
  L 353.50 223.54
  A 1.00 1.00 0.0 0 0 353.01 222.68
  L 346.51 218.83
  Q 345.00 217.94 345.00 219.69
  L 345.00 381.32
  A 1.02 1.01 -16.2 0 1 344.52 382.18
  L 337.02 386.72
  Q 335.50 387.64 335.50 385.86
  L 335.50 213.23
  A 1.00 1.00 0.0 0 0 335.01 212.37
  L 328.51 208.48
  Q 327.00 207.58 327.00 209.34
  L 327.00 391.70
  A 1.00 1.00 0.0 0 1 326.51 392.56
  L 319.05 396.98
  Q 317.55 397.87 317.54 396.12
  Q 317.33 340.48 317.22 284.85
  Q 317.22 284.44 317.61 279.69
  C 317.81 277.25 317.27 274.78 317.27 272.69
  Q 317.24 238.87 317.25 202.74
  A 1.01 0.99 -74.7 0 0 316.77 201.88
  L 310.21 197.98
  Q 308.67 197.06 308.70 198.86
  Q 309.15 220.64 308.99 241.82
  C 308.57 295.31 308.97 348.83 308.64 402.33
  A 0.99 0.98 75.6 0 1 308.14 403.19
  L 229.32 448.48
  A 1.01 1.00 44.5 0 1 228.33 448.48
  L 221.17 444.38
  Q 219.66 443.51 221.17 442.64
  L 298.71 398.06
  A 1.00 0.99 -15.3 0 0 299.21 397.20
  L 299.26 389.35
  Q 299.27 387.61 297.76 388.47
  L 211.45 438.11
  A 1.01 1.00 44.5 0 1 210.46 438.11
  L 203.07 434.02
  Q 201.53 433.16 203.06 432.28
  L 298.75 377.23
  A 1.00 0.99 -15.3 0 0 299.25 376.37
  L 299.25 368.56
  A 1.00 1.00 0.0 0 0 297.75 367.69
  L 193.39 427.74
  A 0.99 0.99 0.0 0 1 192.41 427.74
  L 184.99 423.63
  Q 183.44 422.78 184.97 421.89
  L 298.71 356.43
  A 0.99 0.98 75.6 0 0 299.21 355.57
  L 299.26 347.77
  Q 299.27 346.03 297.76 346.90
  L 175.34 417.35
  A 0.99 0.99 0.0 0 1 174.36 417.35
  L 166.92 413.25
  Q 165.36 412.40 166.90 411.51
  L 298.98 335.47
  A 1.00 1.00 0.0 0 0 299.48 334.54
  L 298.96 327.11
  A 1.00 1.00 0.0 0 0 297.46 326.32
  L 157.17 407.00
  A 1.01 1.00 45.3 0 1 156.17 406.99
  L 148.77 402.72
  Q 147.21 401.82 148.80 400.97
  Q 154.18 398.09 159.82 394.83
  Q 229.22 354.79 298.71 314.87
  A 1.03 1.01 -14.8 0 0 299.22 314.01
  L 299.31 306.20
  Q 299.33 304.45 297.81 305.32
  L 139.26 396.52
  A 0.99 0.98 44.2 0 1 138.29 396.53
  L 130.77 392.45
  Q 129.19 391.60 130.74 390.71
  L 298.76 294.03
  A 1.00 1.00 0.0 0 0 299.26 293.13
  L 299.06 285.54
  A 1.00 0.99 74.3 0 0 297.57 284.70
  L 121.03 386.23
  A 1.00 1.00 0.0 0 1 120.03 386.23
  L 41.01 340.80
  A 1.00 0.98 -76.6 0 1 40.51 339.97
  L 40.18 331.43
  Q 40.12 329.62 41.68 330.53
  L 119.88 375.60
  A 1.01 1.00 44.5 0 0 120.87 375.60
  L 127.68 371.73
  Q 129.20 370.87 127.68 370.00
  L 40.83 320.01
  A 1.02 1.02 0.0 0 1 40.33 319.15
  L 40.21 310.66
  Q 40.19 308.91 41.71 309.78
  L 138.00 365.18
  A 1.00 1.00 0.0 0 0 139.00 365.18
  L 145.67 361.28
  A 1.00 1.00 0.0 0 0 145.66 359.55
  L 40.87 299.25
  A 1.00 0.99 -75.8 0 1 40.37 298.40
  L 40.22 289.88
  Q 40.19 288.12 41.72 289.00
  L 156.07 354.81
  A 1.04 1.01 -44.8 0 0 157.08 354.80
  L 163.77 350.92
  A 1.00 0.99 44.9 0 0 163.76 349.19
  L 40.73 278.38
  A 1.03 1.00 -75.3 0 1 40.23 277.50
  L 40.27 269.07
  A 1.01 1.00 -75.0 0 1 41.77 268.20
  L 174.07 344.37
  A 1.03 1.00 44.8 0 0 175.06 344.38
  L 181.88 340.57
  Q 183.42 339.71 181.89 338.83
  L 40.75 257.62
  A 1.01 1.00 -75.0 0 1 40.25 256.75
  L 40.25 248.28
  A 1.00 1.00 0.0 0 1 41.75 247.42
  L 192.15 333.96
  A 1.01 1.00 45.3 0 0 193.13 333.97
  L 199.92 330.17
  Q 201.46 329.31 199.93 328.43
  L 40.73 236.82
  A 1.01 1.00 -75.0 0 1 40.23 235.95
  L 40.28 227.52
  A 1.00 1.00 0.0 0 1 41.78 226.66
  L 210.27 323.60
  A 1.00 1.00 0.0 0 0 211.28 323.59
  L 217.87 319.69
  A 1.00 1.00 0.0 0 0 217.86 317.97
  L 40.75 216.05
  A 1.01 1.00 -75.0 0 1 40.25 215.18
  L 40.25 125.02
  A 1.00 0.99 -15.3 0 1 40.75 124.16
  L 48.49 119.64
  Q 50.00 118.76 50.00 120.50
  L 50.00 209.99
  A 1.00 1.00 0.0 0 0 50.49 210.85
  L 57.02 214.67
  Q 58.52 215.55 58.52 213.80
  L 58.49 114.47
  A 1.01 1.00 75.0 0 1 58.99 113.60
  L 66.50 109.25
  Q 68.00 108.38 68.00 110.11
  L 68.00 220.34
  A 1.00 1.00 0.0 0 0 68.49 221.20
  L 74.87 224.98
  Q 76.41 225.89 76.38 224.11
  C 76.12 205.62 76.72 187.22 76.24 168.92
  Q 76.23 168.23 76.59 165.10
  C 76.79 163.36 76.28 161.38 76.27 159.88
  Q 76.18 132.18 76.37 104.48
  A 1.00 0.99 -18.0 0 1 76.79 103.67
  Q 80.48 101.03 84.57 99.07
  A 1.00 1.00 0.0 0 1 86.00 99.97
  L 86.00 230.57
  A 0.99 0.99 0.0 0 0 86.48 231.42
  L 93.05 235.47
  Q 94.58 236.41 94.57 234.61
  Q 94.40 173.53 94.50 112.44
  Q 94.52 103.17 94.50 93.89
  A 1.02 1.00 75.0 0 1 94.99 93.02
  L 102.49 88.59
  Q 104.00 87.69 104.00 89.45
  L 104.00 240.98
  A 1.00 1.00 0.0 0 0 104.49 241.84
  L 110.99 245.73
  Q 112.50 246.64 112.50 244.88
  Q 112.50 173.28 112.50 102.95
  C 112.50 98.42 113.00 90.04 112.45 83.54
  A 0.99 0.99 0.0 0 1 112.94 82.59
  L 120.75 78.07
  Q 122.25 77.20 122.25 78.94
  L 122.24 251.55
  A 1.01 1.00 -75.0 0 0 122.74 252.42
  L 129.27 256.20
  Q 130.78 257.08 130.77 255.34
  Q 130.69 193.33 130.88 133.00
  Q 130.97 102.96 130.67 72.95
  A 1.00 0.99 74.8 0 1 131.17 72.07
  L 138.52 67.87
  A 1.01 1.00 75.0 0 1 140.02 68.74
  L 140.25 261.80
  A 0.99 0.99 0.0 0 0 140.73 262.65
  L 147.24 266.62
  Q 148.76 267.55 148.76 265.77
  L 148.76 62.58
  A 1.01 1.00 75.0 0 1 149.26 61.71
  Q 185.72 40.71 222.92 19.35
  C 224.20 18.62 226.59 16.96 228.54 16.03
  A 1.02 0.99 47.1 0 1 229.49 16.08
  L 236.56 20.37
  A 1.00 1.00 0.0 0 1 236.54 22.09
  L 158.95 66.73
  A 1.01 1.00 75.0 0 0 158.45 67.60
  L 158.40 75.41
  Q 158.39 77.15 159.90 76.28
  L 246.36 26.55
  A 0.99 0.97 -44.5 0 1 247.35 26.55
  L 254.65 30.70
  Q 256.17 31.57 254.66 32.44
  L 159.07 87.46
  A 0.99 0.98 -14.5 0 0 158.57 88.30
  L 158.37 96.19
  Q 158.33 97.96 159.87 97.08
  L 264.48 36.90
  A 1.00 1.00 0.0 0 1 265.48 36.90
  L 272.72 41.10
  A 1.00 1.00 0.0 0 1 272.72 42.83
  L 159.05 108.26
  A 1.02 1.00 -15.1 0 0 158.55 109.11
  L 158.40 116.94
  Q 158.37 118.70 159.90 117.82
  L 282.49 47.33
  A 1.00 1.00 0.0 0 1 283.49 47.33
  L 290.78 51.48
  Q 292.29 52.35 290.78 53.22
  L 159.03 129.07
  A 1.00 0.99 75.8 0 0 158.53 129.92
  L 158.42 137.71
  Z
  M 298.51 191.50
  C 275.55 178.06 252.50 164.80 229.38 151.68
  A 1.02 1.02 0.0 0 0 228.38 151.68
  L 158.98 191.63
  A 0.99 0.98 75.6 0 0 158.48 192.49
  L 158.51 272.27
  A 1.01 1.00 -75.0 0 0 159.01 273.14
  L 228.31 313.07
  A 1.02 1.02 0.0 0 0 229.31 313.07
  L 298.50 273.26
  A 1.01 1.00 75.0 0 0 299.00 272.39
  L 299.00 192.36
  A 1.00 1.00 0.0 0 0 298.51 191.50
  Z"
/>
</svg>
