<?xml version="1.0" encoding="UTF-8" standalone="no"?>
<!DOCTYPE svg PUBLIC "-//W3C//DTD SVG 1.1//EN" "http://www.w3.org/Graphics/SVG/1.1/DTD/svg11.dtd">
<svg xmlns="http://www.w3.org/2000/svg" version="1.1" viewBox="0 0 1920 1080">
<path fill="#cdcdcd" d="
  M 650.20 538.50
  A 229.72 229.72 0.0 0 1 420.48 768.22
  A 229.72 229.72 0.0 0 1 190.76 538.50
  A 229.72 229.72 0.0 0 1 420.48 308.78
  A 229.72 229.72 0.0 0 1 650.20 538.50
  Z
  M 642.16 538.51
  A 221.63 221.63 0.0 0 0 420.53 316.88
  A 221.63 221.63 0.0 0 0 198.90 538.51
  A 221.63 221.63 0.0 0 0 420.53 760.14
  A 221.63 221.63 0.0 0 0 642.16 538.51
  Z"
/>
<path fill="#cdcdcd" d="
  M 487.76 697.47
  L 401.46 747.10
  A 0.98 0.97 -45.3 0 1 400.48 747.11
  L 393.09 743.01
  Q 391.54 742.15 393.08 741.27
  L 488.75 686.22
  A 0.99 0.98 75.6 0 0 489.25 685.36
  L 489.25 677.56
  A 1.00 1.00 0.0 0 0 487.75 676.69
  L 383.35 736.76
  A 1.01 1.00 44.5 0 1 382.36 736.76
  L 375.04 732.61
  Q 373.52 731.74 375.04 730.87
  L 488.69 665.43
  A 0.99 0.98 -15.5 0 0 489.19 664.56
  L 489.17 656.81
  A 1.00 1.00 0.0 0 0 487.67 655.95
  L 365.31 726.35
  A 1.01 0.98 -44.8 0 1 364.32 726.36
  L 356.95 722.23
  Q 355.42 721.37 356.94 720.49
  L 488.90 644.52
  A 1.03 1.02 -16.5 0 0 489.40 643.61
  L 489.12 636.05
  A 1.00 0.99 74.0 0 0 487.63 635.22
  L 347.21 715.98
  A 1.00 1.00 0.0 0 1 346.21 715.98
  L 338.90 711.78
  Q 337.40 710.92 338.90 710.05
  L 488.79 623.80
  A 0.99 0.99 0.0 0 0 489.28 622.78
  Q 488.65 618.87 489.31 614.98
  Q 489.59 613.30 488.12 614.15
  L 329.28 705.52
  A 1.03 1.01 -45.6 0 1 328.30 705.54
  L 320.75 701.45
  Q 319.18 700.60 320.73 699.71
  L 488.76 603.03
  A 1.01 1.01 0.0 0 0 489.26 602.14
  L 489.07 594.59
  A 1.00 1.00 0.0 0 0 487.60 593.74
  Q 486.19 594.49 483.68 595.93
  Q 398.09 645.20 311.02 695.21
  A 1.00 1.00 0.0 0 1 310.02 695.21
  Q 272.40 673.62 234.20 651.63
  C 231.41 650.02 229.71 649.58 230.25 646.24
  Q 230.57 644.31 230.36 642.36
  C 229.88 638.02 231.86 639.66 233.75 640.75
  Q 271.83 662.64 309.89 684.59
  A 0.99 0.97 44.5 0 0 310.88 684.59
  L 317.69 680.73
  Q 319.21 679.87 317.69 678.99
  L 230.87 629.04
  A 1.02 1.00 15.1 0 1 230.37 628.19
  L 230.22 619.68
  Q 230.19 617.92 231.72 618.80
  L 328.00 674.17
  A 1.00 1.00 0.0 0 0 329.00 674.17
  L 335.67 670.29
  A 1.00 1.00 0.0 0 0 335.67 668.56
  L 230.82 608.23
  A 1.00 0.99 15.3 0 1 230.32 607.37
  L 230.22 598.88
  Q 230.20 597.13 231.72 598.00
  L 346.08 663.82
  A 1.00 1.00 0.0 0 0 347.09 663.81
  L 353.71 659.90
  A 1.00 1.00 0.0 0 0 353.70 658.17
  L 230.74 587.38
  A 1.01 1.00 15.0 0 1 230.23 586.51
  L 230.27 578.07
  A 1.01 1.00 -74.9 0 1 231.77 577.20
  L 364.05 653.37
  A 1.02 1.02 0.0 0 0 365.04 653.38
  L 371.88 649.58
  Q 373.43 648.72 371.89 647.84
  L 230.74 566.60
  A 1.01 1.00 -75.0 0 1 230.24 565.73
  L 230.26 557.28
  A 1.00 1.00 0.0 0 1 231.76 556.42
  L 382.21 643.00
  A 1.01 1.00 44.5 0 0 383.20 643.00
  L 389.91 639.15
  Q 391.42 638.29 389.91 637.42
  L 230.74 545.83
  A 1.01 1.00 -75.0 0 1 230.24 544.96
  L 230.26 536.50
  A 1.00 1.00 0.0 0 1 231.76 535.64
  L 400.29 632.60
  A 1.00 1.00 0.0 0 0 401.30 632.59
  L 407.89 628.70
  A 0.99 0.99 0.0 0 0 407.88 626.98
  L 230.75 525.04
  A 1.01 1.00 -75.0 0 1 230.25 524.17
  L 230.26 434.04
  A 1.02 1.00 75.0 0 1 230.75 433.17
  L 238.50 428.65
  Q 240.00 427.77 240.00 429.51
  L 239.99 518.97
  A 1.00 1.00 0.0 0 0 240.48 519.83
  L 247.00 523.69
  Q 248.51 524.58 248.51 522.82
  L 248.49 425.25
  Q 248.49 422.86 250.48 421.72
  L 256.50 418.28
  A 1.00 1.00 0.0 0 1 258.00 419.15
  L 258.00 529.34
  A 1.00 1.00 0.0 0 0 258.49 530.20
  L 264.87 533.98
  Q 266.41 534.89 266.38 533.11
  Q 266.08 511.06 266.35 489.43
  C 266.41 484.29 265.99 479.22 266.57 474.09
  C 266.78 472.29 266.26 470.42 266.26 468.89
  Q 266.24 441.62 266.30 413.28
  A 0.99 0.98 75.6 0 1 266.80 412.42
  L 274.50 408.00
  A 1.00 1.00 0.0 0 1 276.00 408.86
  L 276.00 539.57
  A 1.02 1.01 16.2 0 0 276.48 540.43
  L 283.05 544.45
  Q 284.58 545.38 284.57 543.59
  Q 284.40 482.91 284.54 422.19
  Q 284.57 412.86 284.46 402.92
  A 1.01 1.00 -16.1 0 1 284.95 402.04
  L 292.49 397.59
  Q 294.00 396.70 294.00 398.45
  L 294.00 550.00
  A 1.00 1.00 0.0 0 0 294.49 550.86
  L 301.00 554.72
  Q 302.51 555.62 302.51 553.86
  L 302.49 392.59
  A 1.01 0.99 74.7 0 1 302.97 391.73
  L 310.73 387.01
  Q 312.25 386.09 312.25 387.87
  L 312.24 560.56
  A 1.01 1.00 -75.0 0 0 312.74 561.43
  L 319.26 565.23
  Q 320.76 566.10 320.76 564.36
  L 320.77 381.95
  A 1.02 1.00 75.0 0 1 321.26 381.08
  L 328.53 376.85
  Q 330.03 375.98 330.03 377.72
  L 330.25 570.80
  A 0.99 0.99 0.0 0 0 330.73 571.65
  L 337.28 575.66
  Q 338.81 576.59 338.81 574.80
  Q 338.68 525.31 338.76 475.44
  Q 338.83 423.61 338.80 371.56
  A 0.99 0.98 75.6 0 1 339.30 370.70
  L 418.51 325.10
  A 1.00 0.99 45.3 0 1 419.53 325.11
  L 426.56 329.37
  A 1.00 1.00 0.0 0 1 426.54 331.09
  L 348.99 375.71
  A 1.00 0.99 -15.3 0 0 348.49 376.57
  L 348.41 384.40
  Q 348.39 386.15 349.90 385.28
  L 436.32 335.57
  A 1.02 1.02 0.0 0 1 437.31 335.56
  L 444.66 339.69
  Q 446.20 340.55 444.67 341.43
  L 349.06 396.47
  A 1.04 1.01 76.3 0 0 348.56 397.32
  L 348.38 405.19
  Q 348.33 406.96 349.87 406.08
  L 454.46 345.91
  A 0.99 0.97 -44.5 0 1 455.45 345.91
  L 462.73 350.08
  Q 464.24 350.95 462.73 351.82
  L 349.05 417.27
  A 1.00 0.99 75.8 0 0 348.55 418.12
  L 348.40 425.94
  Q 348.37 427.70 349.90 426.82
  L 472.50 356.33
  A 0.99 0.97 44.5 0 1 473.49 356.33
  L 480.75 360.51
  Q 482.26 361.38 480.75 362.24
  L 349.04 438.07
  A 1.00 0.99 75.8 0 0 348.54 438.92
  L 348.41 446.71
  Q 348.38 448.47 349.91 447.59
  L 490.50 366.76
  A 0.99 0.98 44.2 0 1 491.47 366.75
  L 498.96 370.80
  Q 500.54 371.65 498.98 372.55
  L 348.93 458.94
  A 1.01 1.00 -15.0 0 0 348.42 459.81
  L 348.52 467.54
  Q 348.55 469.54 350.13 468.33
  Q 351.06 467.61 352.39 466.85
  Q 430.54 421.99 508.67 377.10
  A 1.00 1.00 0.0 0 1 509.67 377.10
  L 516.90 381.30
  A 1.00 1.00 0.0 0 1 516.90 383.03
  L 349.04 479.65
  A 1.03 1.01 -14.8 0 0 348.53 480.51
  L 348.42 488.28
  Q 348.40 490.04 349.92 489.16
  L 526.69 387.50
  A 1.00 1.00 0.0 0 1 527.69 387.50
  L 606.42 432.83
  A 1.02 1.01 -76.3 0 1 606.93 433.68
  L 607.11 441.97
  Q 607.15 443.75 605.61 442.86
  L 527.84 398.13
  A 1.01 0.98 44.8 0 0 526.85 398.12
  L 519.94 401.98
  Q 518.41 402.84 519.93 403.72
  L 606.45 453.53
  A 1.02 1.00 15.1 0 1 606.95 454.38
  L 607.12 462.77
  Q 607.15 464.54 605.62 463.65
  L 509.70 408.50
  A 1.01 1.00 -45.3 0 0 508.70 408.51
  L 501.95 412.43
  A 1.00 1.00 0.0 0 0 501.95 414.16
  L 606.48 474.34
  A 1.00 0.99 15.3 0 1 606.98 475.20
  L 607.04 483.53
  Q 607.05 485.27 605.54 484.40
  L 491.64 418.92
  A 0.99 0.97 -44.5 0 0 490.65 418.92
  L 483.92 422.80
  Q 482.42 423.66 483.92 424.53
  L 606.54 495.18
  A 1.00 0.99 -75.8 0 1 607.04 496.03
  L 607.14 504.38
  Q 607.16 506.13 605.64 505.26
  L 473.59 429.33
  A 1.01 1.00 -44.5 0 0 472.60 429.33
  L 465.85 433.19
  Q 464.34 434.05 465.85 434.92
  L 606.40 515.85
  A 1.01 1.00 14.3 0 1 606.90 516.68
  L 607.20 525.17
  Q 607.26 526.97 605.70 526.07
  L 455.53 439.74
  A 1.01 1.00 45.3 0 0 454.53 439.73
  L 447.78 443.56
  Q 446.25 444.42 447.77 445.29
  L 606.46 536.67
  A 1.00 0.99 14.2 0 1 606.97 537.52
  L 607.09 545.93
  Q 607.12 547.69 605.59 546.81
  L 437.45 450.13
  A 1.00 1.00 0.0 0 0 436.45 450.13
  L 429.71 454.05
  Q 427.97 455.06 429.82 455.84
  Q 430.83 456.26 431.86 456.85
  Q 519.09 507.10 606.50 557.49
  A 1.01 1.00 -75.0 0 1 607.00 558.36
  L 607.05 648.85
  A 1.00 1.00 0.0 0 1 606.56 649.71
  L 599.33 654.04
  Q 597.82 654.94 597.82 653.18
  L 597.84 563.75
  A 1.01 1.00 -75.0 0 0 597.34 562.88
  L 590.51 558.86
  Q 589.00 557.97 589.00 559.72
  L 589.00 659.37
  A 0.99 0.98 75.6 0 1 588.50 660.23
  L 581.25 664.41
  A 1.00 1.00 0.0 0 1 579.75 663.55
  L 579.75 553.42
  A 1.01 0.99 -74.7 0 0 579.27 552.56
  L 572.75 548.62
  Q 571.23 547.70 571.23 549.47
  L 571.25 669.61
  A 1.00 0.99 -15.3 0 1 570.75 670.47
  L 563.25 674.82
  Q 561.75 675.69 561.75 673.95
  L 561.75 543.08
  A 1.01 0.99 -74.7 0 0 561.27 542.22
  L 554.52 538.18
  Q 553.00 537.27 553.00 539.03
  L 553.00 680.10
  A 1.00 0.99 -15.3 0 1 552.50 680.96
  L 545.00 685.32
  Q 543.50 686.19 543.50 684.45
  L 543.50 532.55
  A 1.00 1.00 0.0 0 0 543.01 531.69
  L 536.51 527.83
  Q 535.00 526.94 535.00 528.69
  L 535.00 690.33
  A 1.00 1.00 0.0 0 1 534.51 691.19
  L 527.01 695.70
  Q 525.50 696.61 525.50 694.84
  L 525.50 522.19
  A 1.00 1.00 0.0 0 0 525.01 521.33
  L 518.51 517.51
  Q 517.00 516.63 517.00 518.38
  L 517.00 700.79
  A 1.01 1.00 75.0 0 1 516.50 701.66
  L 508.98 706.01
  Q 507.48 706.88 507.48 705.14
  C 507.57 669.07 507.05 633.40 507.53 597.79
  C 507.56 595.37 507.11 591.08 507.65 587.61
  C 507.89 586.14 507.25 585.04 507.25 583.68
  Q 507.25 548.46 507.25 511.74
  A 1.00 1.00 0.0 0 0 506.76 510.88
  L 500.25 506.96
  Q 498.72 506.03 498.74 507.82
  C 499.51 575.62 498.84 643.08 498.69 711.29
  A 0.99 0.98 75.6 0 1 498.19 712.15
  L 419.35 757.47
  A 1.01 1.00 44.5 0 1 418.36 757.47
  L 411.17 753.40
  Q 409.64 752.54 411.16 751.66
  L 488.71 707.05
  A 1.01 1.00 75.0 0 0 489.21 706.18
  L 489.26 698.34
  Q 489.27 696.60 487.76 697.47
  Z
  M 349.13 582.16
  Q 383.71 602.31 418.38 622.04
  A 1.00 0.99 44.2 0 0 419.37 622.03
  L 488.51 582.25
  A 1.01 1.00 75.0 0 0 489.01 581.38
  L 488.99 501.27
  A 0.99 0.98 -75.6 0 0 488.49 500.41
  L 419.40 460.66
  A 1.02 1.02 0.0 0 0 418.40 460.66
  L 348.98 500.63
  A 1.01 1.00 -15.0 0 0 348.47 501.50
  L 348.51 581.32
  A 0.80 0.80 0.0 0 0 348.83 581.96
  Q 348.98 582.08 349.13 582.16
  Z"
/>
<path fill="#cdcdcd" d="
  M 886.10 621.81
  A 1.02 1.00 12.3 0 1 885.50 620.89
  L 885.50 586.00
  Q 885.50 582.17 888.68 584.24
  C 894.16 587.80 901.09 587.96 905.24 582.65
  Q 908.44 578.56 905.27 572.76
  Q 901.90 566.59 898.79 560.27
  C 889.84 542.05 890.52 521.22 904.40 505.65
  Q 923.12 484.65 953.02 493.07
  A 1.00 0.99 -82.4 0 1 953.75 494.03
  L 953.75 529.26
  Q 953.75 532.01 951.23 530.98
  C 940.11 526.44 933.28 537.84 938.94 547.05
  C 943.65 554.72 948.24 563.44 950.03 571.87
  C 957.96 609.02 919.93 636.69 886.10 621.81
  Z"
/>
<path fill="#cdcdcd" d="
  M 1052.80 557.25
  L 1061.75 557.25
  A 1.00 1.00 0.0 0 1 1062.75 558.25
  L 1062.75 591.75
  A 1.00 1.00 0.0 0 1 1061.75 592.75
  L 1052.75 592.75
  A 1.00 1.00 0.0 0 0 1051.75 593.75
  L 1051.75 622.00
  A 1.00 1.00 0.0 0 1 1050.75 623.00
  L 1013.00 623.00
  A 1.00 1.00 0.0 0 1 1012.00 622.00
  Q 1012.01 579.83 1011.99 537.50
  Q 1011.99 530.93 1014.07 523.49
  C 1019.28 504.82 1033.02 493.44 1052.71 491.19
  C 1089.58 486.99 1106.44 505.03 1106.48 541.07
  Q 1106.52 581.53 1106.49 622.00
  A 1.00 1.00 0.0 0 1 1105.49 623.00
  L 1067.50 623.00
  A 1.00 1.00 0.0 0 1 1066.50 622.00
  L 1066.50 539.25
  Q 1066.50 537.02 1065.98 534.78
  C 1064.64 529.10 1057.05 528.36 1053.95 532.42
  Q 1051.77 535.28 1051.74 540.00
  Q 1051.70 548.13 1051.80 556.26
  A 1.00 1.00 0.0 0 0 1052.80 557.25
  Z"
/>
<path fill="#cdcdcd" d="
  M 1483.25 543.50
  C 1483.25 517.69 1494.13 495.49 1522.01 491.51
  C 1558.86 486.26 1577.78 503.08 1577.91 540.06
  Q 1578.06 581.02 1577.98 622.00
  A 1.00 1.00 0.0 0 1 1576.98 623.00
  L 1538.99 623.00
  A 1.00 1.00 0.0 0 1 1537.99 622.00
  Q 1538.03 579.63 1537.97 537.26
  C 1537.97 532.81 1534.92 529.60 1530.37 529.88
  C 1520.58 530.49 1522.93 549.66 1523.07 556.27
  A 1.01 1.00 89.1 0 0 1524.07 557.25
  L 1533.00 557.26
  A 1.00 0.99 0.0 0 1 1534.00 558.25
  L 1534.00 591.75
  A 1.00 1.00 0.0 0 1 1533.00 592.75
  L 1524.00 592.75
  A 1.00 1.00 0.0 0 0 1523.00 593.75
  L 1523.00 622.00
  A 1.00 1.00 0.0 0 1 1522.00 623.00
  L 1484.25 623.00
  A 1.00 1.00 0.0 0 1 1483.25 622.00
  Q 1483.25 582.75 1483.25 543.50
  Z"
/>
<path fill="#cdcdcd" d="
  M 785.42 625.90
  C 752.77 629.37 734.06 609.48 734.02 577.84
  Q 733.97 536.43 734.01 495.00
  A 1.00 1.00 0.0 0 1 735.01 494.00
  L 772.50 494.00
  A 1.01 1.00 -0.0 0 1 773.51 495.00
  Q 773.48 536.17 773.46 577.25
  C 773.46 589.99 787.99 590.45 788.00 576.86
  Q 788.01 535.94 788.00 495.00
  A 1.00 1.00 0.0 0 1 789.00 494.00
  L 826.75 494.00
  A 1.00 1.00 0.0 0 1 827.75 495.00
  Q 827.75 536.92 827.76 579.00
  C 827.77 604.22 810.89 623.19 785.42 625.90
  Z"
/>
<path fill="#cdcdcd" d="
  M 1218.44 530.06
  Q 1216.10 529.59 1211.38 530.18
  A 1.00 0.99 86.8 0 0 1210.50 531.17
  L 1210.50 622.00
  A 1.00 1.00 0.0 0 1 1209.50 623.00
  L 1172.00 623.00
  A 1.00 1.00 0.0 0 1 1171.00 622.00
  L 1171.00 495.01
  A 1.00 1.00 0.0 0 1 1172.00 494.01
  Q 1198.24 493.99 1225.00 494.00
  C 1266.56 494.02 1285.36 542.37 1253.26 569.42
  A 0.99 0.99 0.0 0 0 1252.98 570.56
  L 1273.83 620.72
  Q 1274.78 623.00 1272.25 623.00
  L 1233.70 623.00
  A 1.01 1.01 0.0 0 1 1232.78 622.41
  Q 1223.97 602.82 1215.21 583.22
  Q 1214.23 581.01 1214.23 578.60
  Q 1214.27 563.43 1214.25 548.28
  A 1.00 1.00 0.0 0 1 1215.27 547.27
  C 1222.36 547.42 1230.32 546.50 1229.19 537.04
  C 1228.54 531.62 1223.22 531.03 1218.44 530.06
  Z"
/>
<path fill="#cdcdcd" d="
  M 1368.00 531.02
  L 1368.00 622.00
  A 1.00 1.00 0.0 0 1 1367.00 623.00
  L 1329.25 623.00
  A 1.00 1.00 0.0 0 1 1328.25 622.00
  L 1328.25 495.01
  A 1.00 1.00 0.0 0 1 1329.25 494.01
  Q 1356.54 493.99 1384.00 494.01
  Q 1386.76 494.01 1392.32 495.09
  C 1427.81 502.03 1440.00 546.69 1410.79 569.18
  A 1.00 1.00 0.0 0 0 1410.48 570.36
  L 1431.78 621.60
  A 1.01 1.00 78.8 0 1 1430.86 622.99
  L 1391.24 623.00
  A 0.98 0.97 77.8 0 1 1390.33 622.41
  Q 1381.67 603.08 1373.04 583.78
  Q 1372.02 581.50 1372.01 578.98
  Q 1371.99 563.63 1372.00 548.27
  A 1.00 1.00 0.0 0 1 1373.03 547.27
  C 1378.52 547.43 1384.67 547.36 1386.55 540.88
  C 1388.62 533.79 1383.14 531.10 1376.94 530.33
  Q 1372.97 529.85 1368.96 530.02
  A 1.00 1.00 0.0 0 0 1368.00 531.02
  Z"
/>
<path fill="#cdcdcd" d="
  M 1694.55 622.90
  C 1669.76 624.29 1647.31 617.78 1641.17 590.52
  Q 1640.10 585.79 1640.06 575.49
  Q 1639.92 535.27 1640.03 495.00
  A 1.00 1.00 0.0 0 1 1641.03 494.00
  L 1678.51 494.00
  A 1.00 0.99 0.3 0 1 1679.51 495.00
  Q 1679.46 530.73 1679.53 566.40
  C 1679.56 577.10 1679.15 585.45 1692.76 583.85
  Q 1695.50 583.52 1695.50 586.25
  L 1695.49 621.90
  A 1.00 0.99 88.5 0 1 1694.55 622.90
  Z"
/>
</svg>
